name processed_emg_signals
nRows=73
nColumns=7
 
endheader
time	LGLTMED	LRF	LADDLONG	LST	LTA	LGM
0.9	0.5950358890608934	0.2167416350138801	0.3593516389309307	0.4672808206906452	0.3052040012038813	0.0551832269996866
0.901	0.5984176268132109	0.2129360474155963	0.3563714023468559	0.4697772462851206	0.3099819750258493	0.0548275959976946
0.902	0.6020204888171956	0.2093317701223364	0.3534925589317693	0.4722150104368333	0.3147522417113373	0.0544689202632955
0.903	0.6058404807052409	0.2059271261136264	0.3507142579190661	0.4745927028077797	0.3195085247155472	0.0541076422196373
0.904	0.6098733358793914	0.2027202616155536	0.3480356056679479	0.476908914171867	0.3242446051202458	0.0537442272525334
0.905	0.6141145186976971	0.1997091520376523	0.3454556688020082	0.4791622388363579	0.3289543286501007	0.0533791636461961
0.906	0.6185592279633636	0.1968916080419122	0.3429734773046813	0.4813512770698537	0.3336316125110767	0.0530129624854323
0.907	0.623202400716401	0.1942652817328536	0.3405880275640593	0.4834746375267899	0.3382704520451063	0.0526461575244549
0.908	0.6280387163265424	0.1918276729571785	0.3382982853606743	0.4855309396595451	0.3428649271957392	0.0522793050227205
0.909	0.6330626008851111	0.1895761357017738	0.3361031887910352	0.4875188161103089	0.3474092087794954	0.0519129835482594
0.91	0.6382682318931382	0.1875078845776312	0.3340016511205986	0.4894369150756151	0.3518975645576122	0.0515477937491425
0.911	0.643649543241909	0.185620001377737	0.3319925635587995	0.4912839026368444	0.356324365102809	0.0511843580937266
0.912	0.6492002304816716	0.1839094416965244	0.3300747979494549	0.4930584650504021	0.3606840894559826	0.0508233205803885
0.913	0.6549137563733988	0.1823730415984555	0.3282472093695335	0.4947593109914603	0.3649713305684732	0.0504653464174584
0.914	0.6607833567183451	0.1810075243233908	0.3265086386300717	0.4963851737454728	0.3691808005266709	0.050111121674065
0.915	0.6668020464603567	0.1798095070159997	0.3248579146748891	0.4979348133418484	0.3733073355571002	0.0497613529024798
0.916	0.6729626260569116	0.1787755074663444	0.3232938568733233	0.4994070186243421	0.3773459008115982	0.0494167667324587
0.917	0.6792576881154516	0.1779019508493358	0.3218152772061927	0.5008006092530634	0.3812915949335545	0.0490781094379283
0.918	0.6856796242927373	0.1771851764505768	0.3204209823442955	0.502114437633511	0.3851396544071767	0.0487461464762816
0.919	0.6922206324551106	0.1766214443676924	0.3191097756203191	0.5033473907689403	0.3888854576922299	0.0484216620004337
0.92	0.6988727240976013	0.1762069421761178	0.3178804588949935	0.5044983920337576	0.3925245291465613	0.0481054583437741
0.921	0.705627732019099	0.1759377915491677	0.3167318343179335	0.5055664028671062	0.3960525427383685	0.0477983554781465
0.922	0.7124773182507548	0.1758100548219058	0.3156627059832745	0.5065504243869042	0.399465325549527	0.0475011904449151
0.923	0.7194129822347504	0.175819741488666	0.3146718814799777	0.5074494989249039	0.4027588610708711	0.0472148167591392
0.924	0.7264260692510669	0.1759628146239542	0.3137581733355044	0.5082627114827107	0.4059292922900305	0.0469401037868661
0.925	0.7335077790898049	0.1762351972164218	0.3129204003528811	0.5089891911076878	0.4089729245726117	0.0466779360954993
0.926	0.7406491749667388	0.1766327784068249	0.3121573888410526	0.5096281121870782	0.4118862283378308	0.0464292127772463
0.927	0.7478411926790312	0.1771514196203125	0.3114679737393365	0.5101786956584817	0.4146658415301423	0.0461948467457025
0.928	0.7550746499973962	0.1777869605848896	0.3108509996384773	0.5106402101354264	0.4173085718888911	0.0459757640056661
0.929	0.7623402562900936	0.1785352252275021	0.3103053217014511	0.511011972947392	0.4198113990184725	0.0457729028963821
0.93	0.7696286223738491	0.1793920274397169	0.3098298064882653	0.5112933510944598	0.4221714762619107	0.045587213308359
0.931	0.7769302705865716	0.1803531767056805	0.3094233326898354	0.5114837621172355	0.4243861323809473	0.045419655873922
0.932	0.7842356450763538	0.1814144835852329	0.3090847917754465	0.5115826748830814	0.4264528730456389	0.0452712011316441
0.933	0.7915351223010547	0.1825717650454895	0.3088130885592274	0.5115896102896853	0.428369382136148	0.0451428286646884
0.934	0.7988190217318667	0.1838208496346331	0.3086071416902478	0.5115041418869417	0.4301335228591239	0.0450355262130011
0.935	0.8060776167537851	0.1851575824912429	0.3084658840720093	0.5113258964181351	0.4317433386805929	0.0449502887591884
0.936	0.8133011457555372	0.1865778301837286	0.3083882632169797	0.5110545542813889	0.4331970540769277	0.0448881175877719
0.937	0.8204798234015322	0.1880774853745202	0.3083732415430155	0.5106898499124223	0.4344930751050629	0.0448500193175576
0.9380000000000001	0.8276038520790707	0.1896524713054183	0.3084197966171821	0.5102315720893545	0.4356299897929027	0.0448370049067996
0.9390000000000001	0.834663433514743	0.1912987461011957	0.3085269213531859	0.5096795641597299	0.436606568350731	0.0448500886309622
0.9400000000000001	0.8416487805543247	0.1930123068890078	0.3086936241668097	0.5090337241893851	0.437421763204373	0.0448902870329286
0.9410000000000001	0.8485501290994658	0.1947891937319495	0.3089189290939004	0.5082940050326022	0.4380747088510361	0.0449586178455359
0.9420000000000001	0.8553577501930487	0.1966254933745259	0.3092018758738574	0.5074604143233409	0.4385647215389882	0.0450560988863961
0.9430000000000001	0.862061962243641	0.1985173427980326	0.3095415200018905	0.5065330143879717	0.4388912987724097	0.0451837469248654
0.9440000000000001	0.8686531433786574	0.2004609325836935	0.3099369327517975	0.5055119220806099	0.4390541186426323	0.0453425765210422
0.9450000000000001	0.8751217439151672	0.2024525100813004	0.310387201171128	0.5043973085428153	0.4390530389864931	0.0455335988366832
0.9460000000000001	0.8814582989368535	0.2044883823816888	0.3108914280500352	0.5031893988896211	0.4388880963718423	0.0457578204181069
0.9470000000000001	0.8876534409646222	0.2065649190916209	0.3114487318643651	0.5018884718240342	0.4385595049094266	0.0460162419513476
0.9480000000000001	0.8936979127073792	0.2086785549110619	0.3120582466933669	0.5004948591820052	0.4380676548899	0.0463098569901829
0.9490000000000001	0.8995825798780017	0.2108257920133747	0.312719122112494	0.499008945409825	0.4374131112445776	0.0466396506579373
0.9500000000000001	0.9052984440571824	0.2130032022301769	0.3134305230603802	0.4974311669756254	0.436596611829153	0.0470065983242716
0.9510000000000001	0.9108366555853702	0.2152074290435754	0.3141916296800116	0.4957620117165998	0.4356190655308055	0.0474116642583789
0.9520000000000001	0.9161885264598956	0.217435189388756	0.3150016371325501	0.494002018123873	0.4344815502010031	0.047855800260363
0.9530000000000001	0.9213455432115945	0.2196832752705857	0.3158597553828134	0.4921517745673829	0.4331853104181954	0.0483399442727496
0.9540000000000001	0.926299379732402	0.2219485551982558	0.3167652089549271	0.4902119184633507	0.4317317550862183	0.048865018974386
0.9550000000000001	0.9310419100231844	0.2242279754418339	0.3177172366566663	0.4881831353869215	0.4301224548749691	0.049431930359067
0.9560000000000001	0.935565220829282	0.2265185611154856	0.3187150912706181	0.4860661581325984	0.4283591395099029	0.0500415663013473
0.9570000000000001	0.9398616241296764	0.2288174170919826	0.3197580392102949	0.4838617657254738	0.4264436949163921	0.0506947951121069
0.9580000000000001	0.9439236694443048	0.2311217287544251	0.3208453601384347	0.4815707823865205	0.4243781602241695	0.0513924640865738
0.9590000000000001	0.947744155922508	0.2334287625914088	0.3219763465447872	0.4791940764557394	0.4221647246362632	0.0521353980477119
0.96	0.9513161441738204	0.2357358666429143	0.3231503032803786	0.4767325592778384	0.4198057241659894	0.05292439788807
0.961	0.9546329678012174	0.2380404708039764	0.3243665470455518	0.474187184056367	0.4173036382447461	0.053760239113315
0.962	0.957688244596138	0.2403400869937906	0.3256244058296488	0.4715589446834153	0.4146610862027637	0.0546436703908753
0.963	0.9604758873548608	0.2426323091972099	0.3269232183001622	0.4688488745530749	0.4118808236246385	0.0555754121071788
0.964	0.9629901142762408	0.244914813386001	0.3282623331393637	0.4660580453676828	0.4089657385814317	0.0565561549371817
0.965	0.965225458901648	0.247185357327127	0.3296411083268653	0.4631875659465757	0.4059188477411664	0.0575865584299428
0.966	0.9671767795584754	0.2494417802857672	0.3310589103673014	0.4602385810475852	0.402743292359935	0.0586672496140442
0.967	0.9688392682693784	0.2516820026307337	0.3325151134629279	0.4572122702114555	0.3994423341562973	0.0597988216266339
0.968	0.9702084590906904	0.2539040253501939	0.3340090986329057	0.4541098466391073	0.3960193510721929	0.0609818323697442
0.969	0.9712802358453432	0.2561059294852256	0.3355402527808539	0.450932556110984	0.392477832923619	0.0622168031974823
0.97	0.9720508392180808	0.2582858754884592	0.3371079677140468	0.4476816759568056	0.3888213769439951	0.0635042176375566
0.971	0.972516873183574	0.2604421025145986	0.3387116391172784	0.4443585140832101	0.3850536832226224	0.0648445201505
0.972	0.97267531074201	0.2625729276490001	0.340350665485524	0.4409644080657311	0.38117855004013	0.0662381149298881
